<?xml version="1.0" standalone="no"?>
<!DOCTYPE svg PUBLIC "-//W3C//DTD SVG 20010904//EN"
 "http://www.w3.org/TR/2001/REC-SVG-20010904/DTD/svg10.dtd">
<svg version="1.0" xmlns="http://www.w3.org/2000/svg"
 width="679.000000pt" height="679.000000pt" viewBox="0 0 679.000000 679.000000"
 preserveAspectRatio="xMidYMid meet">
<metadata>
Created by potrace 1.11, written by Peter Selinger 2001-2013
</metadata>
<g transform="translate(0.000000,679.000000) scale(0.100000,-0.100000)"
fill="#000000" stroke="none">
<path d="M1303 4352 l-53 -3 0 -40 c0 -21 3 -40 8 -40 4 -1 22 -3 41 -5 80 -9
144 -59 168 -129 16 -49 10 -909 -7 -963 -23 -72 -67 -102 -192 -127 -25 -5
-28 -10 -28 -45 l0 -40 303 0 302 0 0 39 0 40 -60 17 c-129 36 -163 72 -180
194 -4 30 -8 716 -5 880 2 67 0 69 99 -200 27 -74 97 -265 156 -425 59 -159
125 -343 148 -407 l41 -117 64 2 65 2 57 145 c31 80 92 235 135 345 43 110 84
214 91 230 7 17 47 120 89 230 78 203 94 238 95 220 1 -5 2 -234 2 -507 1
-538 0 -546 -53 -573 -15 -8 -53 -18 -84 -21 -67 -8 -83 -21 -77 -63 l4 -31
376 2 375 3 2 25 c4 41 -11 57 -60 64 -65 8 -111 33 -124 64 -8 19 -11 183 -9
554 3 501 4 527 22 547 19 21 58 35 123 44 17 3 36 7 41 10 8 6 8 64 -1 73 -3
3 -141 6 -308 6 l-303 1 -17 -69 c-16 -66 -66 -200 -214 -579 -37 -93 -74
-190 -83 -215 -13 -38 -17 -41 -24 -25 -5 11 -82 215 -171 454 l-162 433 -270
2 c-148 0 -294 0 -322 -2z"/>
<path d="M3340 4350 l-55 -5 -1 -38 c0 -37 1 -38 51 -53 60 -17 122 -55 148
-90 42 -57 45 -93 43 -542 -1 -424 -2 -427 -25 -474 -23 -47 -72 -82 -132 -93
-81 -15 -79 -14 -79 -56 l0 -39 304 0 303 0 -4 37 c-4 40 -13 50 -53 59 -96
21 -151 60 -171 121 -15 46 -26 844 -11 828 5 -5 54 -66 108 -135 54 -69 101
-127 104 -130 3 -3 40 -48 82 -100 42 -52 98 -122 125 -155 27 -33 132 -163
233 -290 101 -126 188 -233 193 -236 6 -4 49 -6 96 -5 l86 1 1 560 c1 483 4
568 17 616 24 81 73 118 177 133 45 6 45 7 45 46 0 40 0 40 -40 41 -55 0 -526
0 -547 0 -14 -1 -18 -10 -18 -41 0 -35 3 -40 28 -46 139 -31 185 -71 208 -184
8 -40 12 -650 4 -650 -3 1 -68 80 -145 177 -77 96 -145 181 -150 187 -6 6 -76
92 -155 190 -178 220 -291 360 -295 365 -6 5 -414 7 -475 1z"/>
<path d="M5207 3310 c-130 -39 -177 -216 -83 -313 42 -44 71 -58 124 -63 65
-5 115 13 158 57 142 146 -2 378 -199 319z"/>
</g>
</svg>
